<mxfile host="Electron" modified="2023-10-16T09:38:58.734Z" agent="Mozilla/5.0 (Windows NT 10.0; Win64; x64) AppleWebKit/537.36 (KHTML, like Gecko) draw.io/22.0.2 Chrome/114.0.5735.289 Electron/25.8.4 Safari/537.36" etag="c-2AA3vPG-lwOsZSY4Xv" version="22.0.2" type="device">
  <diagram name="페이지-1" id="gsJtC9Zg8DCG1IQFq-TW">
    <mxGraphModel dx="1418" dy="828" grid="1" gridSize="10" guides="1" tooltips="1" connect="1" arrows="1" fold="1" page="1" pageScale="1" pageWidth="827" pageHeight="1169" math="0" shadow="0">
      <root>
        <mxCell id="0" />
        <mxCell id="1" parent="0" />
        <mxCell id="RXKbLqsC8ugneorF5TTp-1" value="랜덤바둑" style="rounded=1;whiteSpace=wrap;html=1;" vertex="1" parent="1">
          <mxGeometry x="294" y="90" width="120" height="60" as="geometry" />
        </mxCell>
        <mxCell id="RXKbLqsC8ugneorF5TTp-2" value="Scene" style="rounded=1;whiteSpace=wrap;html=1;" vertex="1" parent="1">
          <mxGeometry x="294" y="180" width="120" height="60" as="geometry" />
        </mxCell>
        <mxCell id="RXKbLqsC8ugneorF5TTp-3" value="Title" style="rounded=1;whiteSpace=wrap;html=1;" vertex="1" parent="1">
          <mxGeometry x="310" y="280" width="120" height="60" as="geometry" />
        </mxCell>
        <mxCell id="RXKbLqsC8ugneorF5TTp-7" value="Lobby" style="rounded=1;whiteSpace=wrap;html=1;" vertex="1" parent="1">
          <mxGeometry x="300" y="770" width="120" height="60" as="geometry" />
        </mxCell>
        <mxCell id="RXKbLqsC8ugneorF5TTp-9" value="Room" style="rounded=1;whiteSpace=wrap;html=1;" vertex="1" parent="1">
          <mxGeometry x="300" y="985" width="120" height="60" as="geometry" />
        </mxCell>
        <mxCell id="RXKbLqsC8ugneorF5TTp-17" value="" style="edgeStyle=orthogonalEdgeStyle;rounded=0;orthogonalLoop=1;jettySize=auto;html=1;" edge="1" parent="1" source="RXKbLqsC8ugneorF5TTp-11" target="RXKbLqsC8ugneorF5TTp-16">
          <mxGeometry relative="1" as="geometry" />
        </mxCell>
        <mxCell id="RXKbLqsC8ugneorF5TTp-11" value="&lt;br&gt;회원가입&lt;br&gt;&amp;nbsp;SignIn버튼 누를 때" style="rounded=1;whiteSpace=wrap;html=1;" vertex="1" parent="1">
          <mxGeometry x="190" y="340" width="140" height="80" as="geometry" />
        </mxCell>
        <mxCell id="RXKbLqsC8ugneorF5TTp-13" value="&lt;br&gt;대기자명단&lt;br&gt;방만들기,&lt;br&gt;능력강화&lt;br&gt;채팅&lt;br&gt;" style="rounded=1;whiteSpace=wrap;html=1;" vertex="1" parent="1">
          <mxGeometry x="275" y="830" width="170" height="105" as="geometry" />
        </mxCell>
        <mxCell id="RXKbLqsC8ugneorF5TTp-14" value="플레이" style="rounded=1;whiteSpace=wrap;html=1;" vertex="1" parent="1">
          <mxGeometry x="252.5" y="1045" width="215" height="120" as="geometry" />
        </mxCell>
        <mxCell id="RXKbLqsC8ugneorF5TTp-15" value="로그인&lt;br&gt;인풋필드에 아이디,비번 입력후 Enter 혹은 로그인 버튼 클릭할 때" style="rounded=1;whiteSpace=wrap;html=1;" vertex="1" parent="1">
          <mxGeometry x="400" y="340" width="140" height="80" as="geometry" />
        </mxCell>
        <mxCell id="RXKbLqsC8ugneorF5TTp-16" value="SignIn Box 팝업 후&lt;br&gt;SignIn버튼 누를 때" style="whiteSpace=wrap;html=1;rounded=1;" vertex="1" parent="1">
          <mxGeometry x="155" y="460" width="155" height="70" as="geometry" />
        </mxCell>
        <mxCell id="RXKbLqsC8ugneorF5TTp-18" value="UserData&lt;br&gt;&lt;br&gt;ID&lt;br&gt;Password&lt;br&gt;&lt;br&gt;기력&lt;br&gt;승, 패" style="rounded=1;whiteSpace=wrap;html=1;" vertex="1" parent="1">
          <mxGeometry x="740" y="280" width="250" height="240" as="geometry" />
        </mxCell>
      </root>
    </mxGraphModel>
  </diagram>
</mxfile>
